<mxfile host="app.diagrams.net" modified="2022-11-28T07:28:48.316Z" agent="5.0 (Windows NT 10.0; Win64; x64) AppleWebKit/537.36 (KHTML, like Gecko) Chrome/106.0.0.0 Safari/537.36 Edg/106.0.1370.52" version="20.6.0" etag="PFTv8iGQQwzrdOV4EpAW" type="github">
  <diagram id="b3p0zYN3SmzfrSYM36B3" name="Page-1">
    <mxGraphModel dx="1422" dy="794" grid="1" gridSize="10" guides="1" tooltips="1" connect="1" arrows="1" fold="1" page="1" pageScale="1" pageWidth="850" pageHeight="1100" math="0" shadow="0">
      <root>
        <mxCell id="0" />
        <mxCell id="1" parent="0" />
        <mxCell id="4L3caF5feEWAJh4UFKQL-6" style="edgeStyle=orthogonalEdgeStyle;rounded=0;orthogonalLoop=1;jettySize=auto;html=1;exitX=0.5;exitY=0.5;exitDx=0;exitDy=0;exitPerimeter=0;entryX=0;entryY=0.367;entryDx=0;entryDy=0;entryPerimeter=0;" edge="1" parent="1" source="4L3caF5feEWAJh4UFKQL-1" target="4L3caF5feEWAJh4UFKQL-5">
          <mxGeometry relative="1" as="geometry" />
        </mxCell>
        <mxCell id="4L3caF5feEWAJh4UFKQL-1" value="HiX/Comez" style="shape=umlActor;verticalLabelPosition=bottom;verticalAlign=top;html=1;outlineConnect=0;" vertex="1" parent="1">
          <mxGeometry x="120" y="80" width="30" height="60" as="geometry" />
        </mxCell>
        <mxCell id="4L3caF5feEWAJh4UFKQL-26" style="edgeStyle=orthogonalEdgeStyle;rounded=0;orthogonalLoop=1;jettySize=auto;html=1;entryX=0;entryY=0.5;entryDx=0;entryDy=0;" edge="1" parent="1" source="4L3caF5feEWAJh4UFKQL-5" target="4L3caF5feEWAJh4UFKQL-8">
          <mxGeometry relative="1" as="geometry" />
        </mxCell>
        <mxCell id="4L3caF5feEWAJh4UFKQL-27" style="edgeStyle=orthogonalEdgeStyle;rounded=0;orthogonalLoop=1;jettySize=auto;html=1;entryX=0;entryY=0.5;entryDx=0;entryDy=0;" edge="1" parent="1" source="4L3caF5feEWAJh4UFKQL-5" target="4L3caF5feEWAJh4UFKQL-9">
          <mxGeometry relative="1" as="geometry" />
        </mxCell>
        <mxCell id="4L3caF5feEWAJh4UFKQL-5" value="API" style="rounded=0;whiteSpace=wrap;html=1;" vertex="1" parent="1">
          <mxGeometry x="240" y="88" width="120" height="60" as="geometry" />
        </mxCell>
        <mxCell id="4L3caF5feEWAJh4UFKQL-7" value="Share:&lt;br&gt;&lt;div data-en-clipboard=&quot;true&quot; data-pm-slice=&quot;1 1 [&amp;quot;codeblock&amp;quot;,{&amp;quot;style&amp;quot;:null,&amp;quot;codeblock&amp;quot;:true,&amp;quot;textAlign&amp;quot;:null}]&quot; data-plaintext=&quot;true&quot;&gt;\\gzazna.local\fs\Streams\PRD\&lt;/div&gt;" style="rounded=0;whiteSpace=wrap;html=1;" vertex="1" parent="1">
          <mxGeometry x="450" y="60" width="180" height="40" as="geometry" />
        </mxCell>
        <mxCell id="4L3caF5feEWAJh4UFKQL-8" value="Picken:&amp;nbsp;&lt;span style=&quot;background-color: initial;&quot;&gt;TXT.Picken.TO.KARDEX.CSA&lt;/span&gt;" style="rounded=0;whiteSpace=wrap;html=1;" vertex="1" parent="1">
          <mxGeometry x="510" y="100" width="240" height="20" as="geometry" />
        </mxCell>
        <mxCell id="4L3caF5feEWAJh4UFKQL-9" value="Beladen:&amp;nbsp;&lt;span style=&quot;background-color: initial;&quot;&gt;TXT.Beladen.TO.KARDEX.CSA&lt;/span&gt;" style="rounded=0;whiteSpace=wrap;html=1;" vertex="1" parent="1">
          <mxGeometry x="510" y="120" width="240" height="20" as="geometry" />
        </mxCell>
        <mxCell id="4L3caF5feEWAJh4UFKQL-12" style="edgeStyle=orthogonalEdgeStyle;rounded=0;orthogonalLoop=1;jettySize=auto;html=1;" edge="1" parent="1" source="4L3caF5feEWAJh4UFKQL-10" target="4L3caF5feEWAJh4UFKQL-1">
          <mxGeometry relative="1" as="geometry" />
        </mxCell>
        <mxCell id="4L3caF5feEWAJh4UFKQL-10" value="Worker" style="rounded=0;whiteSpace=wrap;html=1;" vertex="1" parent="1">
          <mxGeometry x="239" y="233" width="120" height="60" as="geometry" />
        </mxCell>
        <mxCell id="4L3caF5feEWAJh4UFKQL-13" value="Share:&lt;br&gt;&lt;div data-en-clipboard=&quot;true&quot; data-pm-slice=&quot;1 1 [&amp;quot;codeblock&amp;quot;,{&amp;quot;style&amp;quot;:null,&amp;quot;codeblock&amp;quot;:true,&amp;quot;textAlign&amp;quot;:null}]&quot; data-plaintext=&quot;true&quot;&gt;\\gzazna.local\fs\Streams\PRD\&lt;/div&gt;" style="rounded=0;whiteSpace=wrap;html=1;" vertex="1" parent="1">
          <mxGeometry x="570" y="200" width="210" height="40" as="geometry" />
        </mxCell>
        <mxCell id="4L3caF5feEWAJh4UFKQL-16" style="edgeStyle=orthogonalEdgeStyle;rounded=0;orthogonalLoop=1;jettySize=auto;html=1;entryX=1;entryY=0.5;entryDx=0;entryDy=0;" edge="1" parent="1" source="4L3caF5feEWAJh4UFKQL-14" target="4L3caF5feEWAJh4UFKQL-10">
          <mxGeometry relative="1" as="geometry" />
        </mxCell>
        <mxCell id="4L3caF5feEWAJh4UFKQL-14" value="Watcher 1" style="rounded=0;whiteSpace=wrap;html=1;" vertex="1" parent="1">
          <mxGeometry x="400" y="240" width="120" height="20" as="geometry" />
        </mxCell>
        <mxCell id="4L3caF5feEWAJh4UFKQL-17" style="edgeStyle=orthogonalEdgeStyle;rounded=0;orthogonalLoop=1;jettySize=auto;html=1;entryX=1;entryY=0.5;entryDx=0;entryDy=0;" edge="1" parent="1" source="4L3caF5feEWAJh4UFKQL-15" target="4L3caF5feEWAJh4UFKQL-10">
          <mxGeometry relative="1" as="geometry" />
        </mxCell>
        <mxCell id="4L3caF5feEWAJh4UFKQL-15" value="Watcher 2" style="rounded=0;whiteSpace=wrap;html=1;" vertex="1" parent="1">
          <mxGeometry x="400" y="265" width="120" height="20" as="geometry" />
        </mxCell>
        <mxCell id="4L3caF5feEWAJh4UFKQL-21" style="edgeStyle=orthogonalEdgeStyle;rounded=0;orthogonalLoop=1;jettySize=auto;html=1;entryX=1;entryY=0.5;entryDx=0;entryDy=0;" edge="1" parent="1" source="4L3caF5feEWAJh4UFKQL-18" target="4L3caF5feEWAJh4UFKQL-14">
          <mxGeometry relative="1" as="geometry" />
        </mxCell>
        <mxCell id="4L3caF5feEWAJh4UFKQL-18" value="&lt;div data-en-clipboard=&quot;true&quot; data-pm-slice=&quot;1 1 [&amp;quot;codeblock&amp;quot;,{&amp;quot;style&amp;quot;:null,&amp;quot;codeblock&amp;quot;:true,&amp;quot;textAlign&amp;quot;:null}]&quot; data-plaintext=&quot;true&quot;&gt;TXT.StatusIN.FROM.KARDEX.CSA&lt;/div&gt;" style="rounded=0;whiteSpace=wrap;html=1;" vertex="1" parent="1">
          <mxGeometry x="600" y="240" width="220" height="20" as="geometry" />
        </mxCell>
        <mxCell id="4L3caF5feEWAJh4UFKQL-22" style="edgeStyle=orthogonalEdgeStyle;rounded=0;orthogonalLoop=1;jettySize=auto;html=1;entryX=1;entryY=0.25;entryDx=0;entryDy=0;" edge="1" parent="1" source="4L3caF5feEWAJh4UFKQL-19" target="4L3caF5feEWAJh4UFKQL-15">
          <mxGeometry relative="1" as="geometry" />
        </mxCell>
        <mxCell id="4L3caF5feEWAJh4UFKQL-19" value="&lt;div data-en-clipboard=&quot;true&quot; data-pm-slice=&quot;1 1 [&amp;quot;codeblock&amp;quot;,{&amp;quot;style&amp;quot;:null,&amp;quot;codeblock&amp;quot;:true,&amp;quot;textAlign&amp;quot;:null}]&quot; data-plaintext=&quot;true&quot;&gt;TXT.StatusOUT.FROM.KARDEX.CSA&lt;/div&gt;" style="rounded=0;whiteSpace=wrap;html=1;" vertex="1" parent="1">
          <mxGeometry x="600" y="260" width="220" height="20" as="geometry" />
        </mxCell>
      </root>
    </mxGraphModel>
  </diagram>
</mxfile>
